<svg id="Capa_1" enable-background="new 0 0 512 512" height="512" viewBox="0 0 512 512" width="512" xmlns="http://www.w3.org/2000/svg"><g><path d="m372.603 194.707-40.643-27.095c8.637-8.205 14.04-19.786 14.04-32.612 0-19.555-12.541-36.228-30-42.42v-92.58h-120v92.58c-17.459 6.192-30 22.865-30 42.42 0 12.826 5.403 24.407 14.041 32.612l-40.644 27.096c-20.912 13.941-33.397 37.27-33.397 62.403v254.889h300v-254.889c0-25.133-12.485-48.462-33.397-62.404zm-86.603-164.707v60h-60v-60zm-75 90h90c8.271 0 15 6.729 15 15s-6.729 15-15 15h-90c-8.271 0-15-6.729-15-15s6.729-15 15-15zm165 362h-240v-224.889c0-15.08 7.491-29.077 20.038-37.442l59.504-39.669h80.917l59.504 39.668c12.546 8.366 20.037 22.363 20.037 37.443z"/><path d="m166 452h180v-209.889h-180zm30-179.889h120v149.889h-120z"/></g></svg>